<?xml version="1.0" encoding="UTF-8" standalone="no"?>
<!-- Created with Inkscape (http://www.inkscape.org/) -->

<svg
   xmlns:dc="http://purl.org/dc/elements/1.1/"
   xmlns:cc="http://creativecommons.org/ns#"
   xmlns:rdf="http://www.w3.org/1999/02/22-rdf-syntax-ns#"
   xmlns:svg="http://www.w3.org/2000/svg"
   xmlns="http://www.w3.org/2000/svg"
   xmlns:sodipodi="http://sodipodi.sourceforge.net/DTD/sodipodi-0.dtd"
   xmlns:inkscape="http://www.inkscape.org/namespaces/inkscape"
   version="1.1"
   id="svg10"
   width="1240.2162"
   height="1240.2162"
   viewBox="0 0 1240.2162 1240.2162"
   sodipodi:docname="chack_accepted.svg"
   inkscape:version="0.92.4 (5da689c313, 2019-01-14)">
  <metadata
     id="metadata16">
    <rdf:RDF>
      <cc:Work
         rdf:about="">
        <dc:format>image/svg+xml</dc:format>
        <dc:type
           rdf:resource="http://purl.org/dc/dcmitype/StillImage" />
        <dc:title></dc:title>
      </cc:Work>
    </rdf:RDF>
  </metadata>
  <defs
     id="defs14" />
  <sodipodi:namedview
     pagecolor="#ffffff"
     bordercolor="#666666"
     borderopacity="1"
     objecttolerance="10"
     gridtolerance="10"
     guidetolerance="10"
     inkscape:pageopacity="0"
     inkscape:pageshadow="2"
     inkscape:window-width="1920"
     inkscape:window-height="1017"
     id="namedview12"
     showgrid="false"
     inkscape:zoom="0.17093794"
     inkscape:cx="278.31469"
     inkscape:cy="-353.90665"
     inkscape:window-x="-8"
     inkscape:window-y="-8"
     inkscape:window-maximized="1"
     inkscape:current-layer="svg10" />
  <path
     style="fill:#000000;stroke-width:2.59459448"
     d="m 569.69146,1216.8077 c -9.9892,-1.9168 -28.5595,-4.6527 -41.2673,-6.0797 -12.7078,-1.427 -28.4699,-4.3414 -35.027,-6.4764 -14.0353,-4.5701 -54.19,-18.5379 -69.003,-24.0028 -11.2359,-4.1451 -38.1094,-16.91 -40.2163,-19.1026 -0.7135,-0.7425 -4.8,-2.8885 -9.081,-4.7688 -4.2811,-1.8802 -15.9568,-8.9684 -25.946,-15.7514 -31.6401,-21.4847 -30.4897,-21.3905 -69.5275,-5.696 -3.9914,1.6047 -11.5806,2.7716 -16.8648,2.5929 l -9.6077,-0.3247 10.4858,-1.7237 c 5.7671,-0.9481 14.6617,-4.3046 19.7657,-7.4591 5.104,-3.1544 12.8118,-5.7353 17.1285,-5.7353 4.8869,0 8.4659,-1.6087 9.4846,-4.2632 0.8998,-2.3448 1.3166,-4.4061 0.9262,-4.5806 -0.3903,-0.1745 -8.2989,-6.5971 -17.5746,-14.2725 -25.0934,-20.7641 -57.8282,-55.3812 -79.3412,-83.9035 -19.7409,-26.17281 -47.7939,-71.59836 -47.7939,-77.39157 0,-1.81726 -4.6703,-12.37495 -10.3784,-23.46155 -5.7081,-11.0866 -10.3784,-23.29658 -10.3784,-27.13331 0,-3.83673 -2.406,-10.86899 -5.3468,-15.62724 -7.4577,-12.06673 -17.1747,-50.24702 -19.0847,-74.98814 -0.8814,-11.41622 -3.2925,-27.76216 -5.3579,-36.32433 -3.6363,-15.07368 -5.5176,-74.0984 -2.4592,-77.15678 0.8146,-0.8146 1.806,-10.05784 2.203,-20.54052 1.9874,-52.46864 21.2269,-122.46917 48.7388,-177.32972 18.9691,-37.82555 42.6279,-73.94846 67.9737,-103.78378 20.5322,-24.16901 62.2427,-64.4129 75.3424,-72.69316 6.816,-4.30833 11.8286,-9.43517 11.8286,-12.09818 0,-2.54177 -4.0977,-11.02705 -9.1059,-18.85619 -10.5836,-16.54476 -22.0293,-46.60854 -22.0293,-57.86302 0,-16.19798 15.9581,-42.16511 25.9125,-42.16511 2.3017,0 5.294,-1.09253 6.6497,-2.42784 5.1114,-5.0346 43.1867,-13.14651 62.7415,-13.36703 11.0857,-0.12501 25.9936,-1.00069 33.1288,-1.94595 l 12.9729,-1.71864 1.7842,-21.52498 c 2.0126,-24.28035 4.7982,-34.32543 15.3896,-55.495823 11.2706,-22.52794 21.6469,-28.28739 69.7452,-38.71247 26.7462,-5.79711 38.2436,1.40962 85.0189,53.29108 l 11.0729,12.281733 20.0622,-1.95147 c 11.0342,-1.07331 31.4703,-1.9306 45.41355,-1.90509 21.7033,0.0397 27.9612,1.09699 43.4876,7.34742 38.9598,15.684 59.9783,46.27838 63.8725,92.97226 l 1.6998,20.38241 11.4959,4.92773 c 6.3228,2.71026 12.8586,4.96222 14.5241,5.00436 1.6655,0.0421 16.9002,6.99834 33.855,15.45821 29.3687,14.65406 31.1677,15.20526 38.0358,11.65364 3.965,-2.05037 7.8062,-5.21197 8.5359,-7.02578 0.7298,-1.8138 1.4271,2.54001 1.5495,9.67514 0.2062,12.02847 0.9296,13.43487 9.9345,19.31712 18.7008,12.2159 20.2328,14.38957 19.2095,27.25575 -0.5164,6.49303 -2.2181,11.80551 -3.7814,11.80551 -3.3227,0 -20.8494,-11.74609 -29.8274,-19.98979 -3.4259,-3.14574 -10.4359,-7.10795 -15.5776,-8.80489 -8.471,-2.79568 -34.3271,-15.84516 -40.7435,-20.5631 -1.427,-1.04928 -11.3514,-5.62003 -22.0541,-10.15723 -10.7027,-4.53719 -22.11,-9.55831 -25.3497,-11.15803 -4.4356,-2.19029 -6.6638,-2.13499 -9.0227,0.22391 -4.7899,4.78986 0.5762,11.09265 12.4439,14.61617 5.6391,1.67424 12.588,4.39502 15.4421,6.04617 8.0262,4.64341 40.0655,18.65166 42.6595,18.65166 1.2724,0 2.7026,1.06061 3.1783,2.35693 0.4757,1.29628 3.2,2.75574 6.054,3.24324 2.8541,0.48747 6.7394,2.96448 8.634,5.50443 1.8945,2.53998 11.6924,10.05175 21.7729,16.69284 10.0805,6.64108 18.8828,14.19534 19.5606,16.78727 0.6778,2.59192 3.5071,4.71258 6.2874,4.71258 2.7803,0 11.1089,5.92753 18.5082,13.17228 7.3992,7.24476 21.4019,20.96368 31.117,30.48649 24.2712,23.79095 39.98839,46.14341 43.36309,61.66954 2.457,11.30439 4.1463,13.54882 15.1249,20.0949 9.1079,5.4308 13.8222,10.54939 17.9224,19.45946 4.8503,10.54026 17.1218,37.83576 24.0991,53.60381 4.873,11.01257 12.9195,37.98613 19.0435,63.83787 6.6749,28.17761 15.5767,104.60681 13.3471,114.59735 -0.7095,3.17955 -3.0946,23.72702 -5.3003,45.66105 -2.2056,21.93405 -4.9536,41.7827 -6.1066,44.10811 -1.153,2.32543 -3.5123,11.23345 -5.2428,19.79561 -1.7305,8.56217 -4.7188,19.65406 -6.6407,24.64865 -1.9219,4.9946 -7.2437,19.00541 -11.8262,31.13514 -12.644,33.46874 -24.2261,55.99363 -43.8472,85.27433 -5.1315,7.65763 -10.4975,15.82513 -11.9245,18.14995 -10.89039,17.74241 -61.16429,70.56491 -85.62159,89.96241 -7.1351,5.6589 -13.3621,11.1647 -13.8378,12.2349 -0.4757,1.0703 -1.8524,1.946 -3.0594,1.946 -1.207,0 -12.4935,6.7465 -25.0811,14.9924 -12.5876,8.2458 -25.8055,16.4103 -29.373,18.1433 -3.5676,1.733 -8.2379,4.3017 -10.3784,5.7082 -3.4514,2.2679 -31.4488,15.0765 -45.4054,20.7727 -25.0102,10.2076 -56.4841,18.5121 -94.7027,24.9878 -42.61135,7.22 -153.33655,4.595 -175.13515,-4.1519 -2.854,-1.1453 -12.1945,-3.4996 -20.7567,-5.2319 -8.5622,-1.7323 -16.7351,-3.9828 -18.1622,-5.0011 -1.427,-1.0184 -7.8486,-3.2972 -14.2702,-5.0641 -6.4217,-1.7669 -15.1784,-4.767 -19.4595,-6.6669 -4.2811,-1.8999 -13.6216,-6.0107 -20.7568,-9.1351 -18.778,-8.2226 -36.5825,-17.5301 -55.3832,-28.9519 -15.4905,-9.4108 -34.2257,-13.8802 -30.0825,-7.1763 4.7142,7.6277 70.9874,45.2299 91.1881,51.7384 5.4149,1.7447 11.0128,4.022 12.4398,5.0607 4.1665,3.0328 40.5627,14.9544 51.8919,16.9972 5.7081,1.0292 11.5459,2.7223 12.973,3.7625 11.4159,8.3211 130.5871,16.5262 158.18855,10.8915 7.18,-1.4658 23.5627,-4.4016 36.406,-6.5241 30.916,-5.1092 57.8678,-11.4158 67.4594,-15.7852 4.2811,-1.9502 10.7027,-4.3675 14.2703,-5.3718 6.0033,-1.6901 10.8468,-3.7047 36.7164,-15.2721 5.2103,-2.3297 10.5496,-4.2358 11.8652,-4.2358 2.4492,0 26.8264,-14.9026 59.0363,-36.0907 23.4799,-15.4454 20.7086,-13.3013 41.3493,-31.9901 62.79399,-56.8556 102.88719,-111.95385 132.65189,-182.29762 27.0682,-63.97115 35.4673,-105.84755 35.9069,-179.02702 0.4073,-67.79219 -4.9871,-104.61888 -23.2472,-158.70609 -3.4534,-10.2289 -6.2788,-21.52927 -6.2788,-25.11196 0,-3.58269 -1.7514,-8.26534 -3.8919,-10.40588 -4.8176,-4.81764 -4.88,-6.24462 -0.3196,-7.31556 2.6265,-0.61679 2.9631,-2.46292 1.2713,-6.97287 -1.8187,-4.8486 -3.0517,-5.51095 -5.8834,-3.16079 -2.8943,2.40202 -5.4553,-0.40714 -13.331,-14.62277 -10.1653,-18.34843 -14.2399,-37.94379 -9.6101,-46.21668 2.2037,-3.93792 3.0132,-3.23149 5.73,5.00066 2.5087,7.60131 3.8881,8.98526 6.6616,6.6835 2.7429,-2.27642 5.2687,-0.48224 11.7046,8.31414 4.5137,6.16935 8.8455,12.96835 9.6262,15.10889 0.7806,2.14055 5.4574,12.64865 10.3928,23.35136 16.9297,36.71291 27.3318,71.80486 38.4552,129.72972 5.9886,31.18529 6.7383,109.9227 1.3588,142.7027 -11.9116,72.58306 -35.6149,142.94891 -62.6947,186.11583 -1.9983,3.18533 -6.868,6.91918 -10.8218,8.29746 -6.1797,2.15426 -7.1886,3.9107 -7.1886,12.51523 0,6.55574 -2.2345,13.09264 -6.4762,18.94575 -3.5619,4.9151 -8.5241,11.7707 -11.027,15.2347 -15.257,21.115 -46.73559,55.1871 -69.26109,74.9674 -12.6786,11.1334 -17.0347,13.5455 -22.5027,12.4601 -5.3292,-1.0579 -7.38,-0.03 -9.5811,4.8007 -2.0337,4.4634 -4.2623,5.7644 -8.1384,4.7508 -4.3566,-1.1393 -5.3378,-0.1798 -5.3378,5.2195 0,7.335 -15.2754,21.4544 -31.1351,28.7789 -4.9946,2.3066 -17.2541,9.2016 -27.2433,15.3221 -9.9891,6.1206 -22.2486,12.6647 -27.2432,14.5425 -4.9946,1.8778 -12.7602,5.0287 -17.257,7.0019 -4.4967,1.9732 -10.0892,3.5877 -12.4277,3.5877 -2.3385,0 -8.5836,2.1945 -13.8781,4.8767 -19.9024,10.0825 -61.3481,18.9128 -117.3021,24.9919 -42.08005,4.5718 -75.35105,4.5033 -99.89175,-0.206 z m 120.44995,-59.3583 c 29.1698,-4.1563 35.3937,-5.6773 76.7391,-18.754 19.0002,-6.0094 59.375,-23.2568 68.7568,-29.3718 2.1405,-1.3952 7.9784,-4.7228 12.973,-7.3947 18.8968,-10.109 22.5894,-12.478 42.8108,-27.4655 26.1918,-19.4125 73.8435,-66.8441 92.7301,-92.30173 46.00559,-62.01203 76.47159,-134.09386 86.31569,-204.22129 5.0187,-35.75214 4.9399,-95.30823 -0.1777,-134.33111 -8.0414,-61.3173 -31.0491,-123.35528 -67.3455,-181.59043 -6.39689,-10.26341 -11.63069,-21.77358 -11.63069,-25.57811 0,-4.91533 -1.3433,-6.91737 -4.6411,-6.91737 -2.5526,0 -12.185,-8.40151 -21.4054,-18.67 -26.0593,-29.02163 -37.5333,-39.91302 -54.7144,-51.93629 -38.8748,-27.20447 -45.9685,-31.93343 -60.6445,-40.42818 -30.7545,-17.8012 -72.4393,-36.85227 -80.6432,-36.85611 -1.543,-7e-4 -8.5484,8.02552 -15.5676,17.83607 -7.0192,9.81055 -20.0595,23.92242 -28.9784,31.3597 -16.0526,13.38582 -16.2162,13.65753 -16.2162,26.92033 0,11.8923 4.2682,36.36864 9.236,52.96367 1.4311,4.78064 0.7414,5.83784 -3.8085,5.83784 -8.2705,0 -11.7341,11.15574 -6.7134,21.62296 4.0785,8.50287 28.7299,26.39224 45.394,32.94216 14.3455,5.63858 38.1855,20.21382 39.7557,24.30575 2.0325,5.29645 -2.7619,6.62976 -43.6476,12.13832 -19.9784,2.69171 -52.6703,7.31128 -72.6487,10.26569 -19.97825,2.95444 -47.41615,7.00619 -60.97285,9.00387 -13.5568,1.99768 -27.9175,3.68868 -31.9128,3.75778 -9.0977,0.15723 -7.9419,-2.15352 11.1914,-22.37597 34.9376,-36.92627 63.8864,-75.91841 66.6601,-89.78649 0.7974,-3.98719 3.9225,-9.0103 6.94465,-11.16249 5.491,-3.91029 5.4891,-3.91799 -2.73675,-10.93393 -6.3807,-5.44219 -8.9145,-10.43764 -11.2683,-22.21601 -3.0134,-15.07914 -2.9776,-15.25733 4.698,-23.35135 4.254,-4.48593 9.45915,-11.65893 11.56705,-15.94001 5.1937,-10.54861 10.6241,-41.06852 8.4987,-47.76496 -2.3281,-7.33518 -16.63445,-7.46376 -22.84925,-0.20549 -4.9411,5.77074 -5.896,14.34946 -1.8739,16.83521 1.427,0.88195 2.5946,3.91086 2.5946,6.7309 0,4.32334 -0.8137,4.69188 -5.1892,2.35018 -5.0726,-2.71478 -5.1892,-1.97316 -5.1892,33.00692 0,40.95066 -1.3165,47.21207 -13.9031,66.12376 -20.2889,30.48464 -42.1852,46.7597 -71.3841,53.0585 -25.773,5.55975 -41.5872,5.14902 -52.2602,-1.35726 -4.9759,-3.03337 -10.6007,-5.51961 -12.4994,-5.52493 -1.8987,-0.005 -9.7315,-4.17766 -17.4062,-9.27186 -14.4815,-9.61228 -23.2786,-23.83727 -29.8625,-48.28798 -4.5632,-16.94646 -8.0673,-22.71232 -17.2529,-28.38935 -4.7874,-2.9588 -10.1329,-6.78585 -11.8788,-8.50461 -1.7459,-1.71874 -14.5105,-8.77531 -28.3658,-15.68127 -28.978,-14.4437 -25.5146,-15.05663 -55.2411,9.7762 -28.2194,23.57392 -84.3243,84.27882 -84.3243,91.23806 0,0.84937 -2.0977,3.7959 -4.6615,6.54783 -8.0325,8.62186 -36.6224,62.2678 -38.4843,72.21164 -0.977,5.21773 -3.8656,12.40569 -6.4191,15.97326 -8.0366,11.22808 -22.4699,59.72476 -27.4126,92.1081 -8.4737,55.51748 -4.5558,139.7356 8.57,184.21622 11.0074,37.30201 20.7954,63.7086 32.2481,87.00033 12.7242,25.87792 17.9973,31.55549 17.9973,19.37815 0,-8.0681 3.9329,-8.63531 4.4977,-0.64865 1.4264,20.17287 8.2039,36.84052 22.4192,55.13513 4.4353,5.70809 9.2421,11.99699 10.6817,13.97529 1.4397,1.9784 14.877,16.27241 29.8608,31.76461 25.9366,26.8167 58.3028,54.152 64.1184,54.152 1.4881,0 4.0804,1.6564 5.7606,3.6809 3.4509,4.1581 34.4122,22.9995 52.067,31.6851 17.2627,8.4928 40.6085,17.807 59.6756,23.8086 37.1755,11.7015 44.6342,13.61 62.8128,16.073 10.4043,1.4096 25.9224,3.6519 34.4845,4.9828 21.1543,3.2882 74.065,1.5829 110.07165,-3.5476 z m -111.36895,-51.042 c 0,-13.4329 -0.4188,-14.3079 -9.081,-18.9729 -4.9946,-2.6897 -9.0811,-5.7083 -9.0811,-6.7078 0,-0.9996 4.912,-2.859 10.9155,-4.132 10.0403,-2.129 11.1801,-3.229 14.2146,-13.7184 1.8146,-6.2721 3.8148,-11.9195 4.445,-12.5496 0.6301,-0.6302 3.866,3.6721 7.1907,9.5606 l 6.045,10.7065 12.5635,-1.6765 c 13.8186,-1.8439 13.963,-0.8116 2.0063,14.3411 -4.9896,6.3233 -4.9886,6.4791 0.1072,16.4677 2.8294,5.5461 4.5209,10.7074 3.7589,11.4694 -0.762,0.7621 -5.3983,-0.5186 -10.3029,-2.846 -10.7132,-5.0837 -13.1783,-5.2209 -17.7582,-0.9883 -1.9301,1.7838 -6.1,5.4674 -9.2664,8.1859 l -5.7571,4.9427 z m 81.1874,-1.7938 1.4778,-12.4774 -11.6291,-6.3334 -11.629,-6.3335 13.7559,-3.9966 c 13.5726,-3.9432 13.7666,-4.1421 14.5538,-14.9189 0.95585,-13.0872 5.00565,-13.8797 12.21185,-2.39 4.5173,7.2026 6.8922,8.4398 17.5135,9.1233 6.7582,0.435 12.2876,1.5387 12.2876,2.4527 0,0.914 -3.0572,4.8528 -6.7938,8.7529 -6.7796,7.0764 -6.785,7.1169 -2.5946,19.415 2.3096,6.7781 4.1992,12.6845 4.1992,13.1252 0,0.4408 -5.2516,-1.75 -11.6702,-4.8684 l -11.6701,-5.6698 -8.5615,8.2981 c -4.70875,4.564 -9.54415,8.2981 -10.74525,8.2981 -1.2011,0 -1.5188,-5.6148 -0.7061,-12.4773 z m 76.24275,-26.218 1.5099,-12.7494 -10.8049,-5.5122 c -5.9427,-3.0318 -10.1943,-6.5004 -9.4479,-7.708 0.7464,-1.2077 6.4784,-2.9638 12.7377,-3.9024 10.9684,-1.6448 11.4317,-2.0864 12.7868,-12.1894 1.7131,-12.7726 4.0989,-15.499 7.9844,-9.1244 9.2631,15.197 11.8283,17.0294 19.9008,14.2153 4.2635,-1.4863 9.576,-2.0022 11.8057,-1.1467 3.3547,1.2874 2.7077,3.1889 -3.751,11.0244 -7.7175,9.3626 -7.7596,9.5819 -3.7616,19.5739 2.2238,5.5578 3.4955,10.653 2.8259,11.3225 -0.6695,0.6696 -6.0203,-0.4772 -11.8907,-2.5484 -10.4949,-3.7028 -10.8099,-3.6382 -18.8413,3.8642 -4.4923,4.1965 -9.157,7.63 -10.3658,7.63 -1.2089,0 -1.5185,-5.7372 -0.688,-12.7494 z M 279.02166,960.4699 c -0.5401,-1.62061 -2.253,-14.62222 -3.8065,-28.89249 -1.5535,-14.27027 -4.7307,-36.19151 -7.0603,-48.71388 -2.5938,-13.94213 -3.3055,-23.69537 -1.8361,-25.16043 1.3198,-1.31588 8.7941,-2.74597 16.6095,-3.17802 l 14.2098,-0.78551 2.1376,16.86486 c 2.4282,19.15792 4.2179,22.0099 12.2185,19.47059 5.3048,-1.68368 5.5587,-2.84741 3.8774,-17.77126 -0.9896,-8.78327 -1.967,-17.03885 -2.1721,-18.34573 -0.4221,-2.68973 29.1015,-9.47424 30.4837,-7.00514 1.4403,2.57285 3.8763,17.63854 8.2294,50.89479 2.2415,17.12432 4.715,35.94515 5.4967,41.82403 0.7818,5.87891 0.3439,11.35483 -0.973,12.1687 -1.3169,0.81387 -8.1655,2.24534 -15.2192,3.18105 l -12.8248,1.70128 -3.2423,-13.94595 c -1.7833,-7.67024 -3.2423,-16.53875 -3.2423,-19.70779 0,-4.69798 -1.4666,-5.76186 -7.9428,-5.76186 h -7.9428 l 1.5704,12.32432 c 0.8638,6.77838 2.1586,16.13417 2.8775,20.79064 1.4714,9.53021 0.7764,9.98673 -17.9468,11.78914 -8.0228,0.77231 -12.8723,0.14685 -13.5015,-1.74134 z m 94.9081,-17.86547 c -5.7949,-14.37618 -14.7309,-83.32369 -12.1382,-93.65396 1.4651,-5.8375 3.5664,-6.46975 35.6032,-10.71283 28.653,-3.7949 34.5943,-3.95174 37.5064,-0.99012 5.8458,5.9452 18.167,91.70849 14.1169,98.26181 -2.336,3.77963 -45.1579,12.46418 -62.9498,12.7666 -7.8061,0.13258 -10.2614,-1.01451 -12.1385,-5.6715 z m 38.4733,-25.04749 c 2.771,-1.75508 3.1754,-6.275 1.7955,-20.06836 -2.4861,-24.85071 -5.9242,-34.66793 -12.1412,-34.66793 -2.7881,0 -5.7165,1.68641 -6.5074,3.74761 -1.1891,3.09864 2.122,30.42681 5.5189,45.54969 0.4808,2.14054 0.9635,4.76756 1.0727,5.83783 0.2667,2.61414 5.847,2.39725 10.2615,-0.39884 z m 52.8843,6.63589 c -1.6399,-7.35469 -3.724,-20.37759 -4.6315,-28.93975 -0.9074,-8.56216 -3.373,-25.95217 -5.4789,-38.64446 -2.106,-12.69226 -2.8883,-23.9343 -1.7384,-24.98226 2.6249,-2.39224 35.5169,-7.79121 58.097,-9.53617 16.8719,-1.30381 17.124,-1.22707 19.9846,6.08336 1.5934,4.07211 4.1419,18.18512 5.6633,31.36224 3.5026,30.33769 2.014,33.29882 -17.9124,35.63175 -24.2706,2.84155 -24.3072,2.86806 -22.8675,16.5731 0.6964,6.62914 1.7089,13.67196 2.25,15.65072 1.0162,3.71611 -4.7207,6.07294 -21.1869,8.70396 l -9.1978,1.46966 z m 36.9446,-62.63393 c 0,-7.16129 -1.1972,-10.55232 -3.8919,-11.02379 -6.9521,-1.21637 -9.6078,2.92788 -8.3787,13.07528 1.006,8.30517 2.0739,9.74556 6.7331,9.08108 4.5954,-0.65539 5.5375,-2.54932 5.5375,-11.13257 z m 54.5876,46.21855 c -1.0139,-9.74247 -3.4087,-26.02277 -5.3217,-36.17851 -1.9129,-10.15571 -4.2854,-26.6578 -5.2721,-36.6713 l -1.794,-18.20637 10.0352,-1.45383 c 40.899,-5.92517 63.551,-7.64453 66.1728,-5.02275 4.5579,4.55793 13.4243,55.24261 10.8413,61.97392 -2.1436,5.58621 -18.0035,11.3588 -31.2077,11.3588 h -11.595 l 0.8849,17.46878 0.8849,17.46881 -9.0811,1.62497 c -4.9946,0.89373 -12.1462,2.46333 -15.8925,3.48799 -6.7552,1.84763 -6.8267,1.71676 -8.655,-15.85051 z m 40.0754,-57.58373 c -0.054,-9.27456 -3.4904,-14.01616 -9.3523,-12.9044 -5.7082,1.0826 -8.4819,17.31324 -3.4862,20.4007 5.9548,3.68028 12.8799,-0.36327 12.8385,-7.4963 z m 53.5089,55.23173 c -0.8649,-2.25382 -3.3521,-18.89166 -5.527,-36.97297 -2.175,-18.08129 -5.2717,-38.96415 -6.8816,-46.40638 -3.7073,-17.13851 -1.1018,-20.70372 16.0062,-21.9018 14.96905,-1.04829 15.49145,-0.14115 15.54635,27.00067 0.036,17.68611 3.8221,23.58941 6.6567,10.37838 0.842,-3.92432 3.2696,-12.82344 5.3948,-19.77584 2.1251,-6.95237 3.2694,-14.18992 2.5428,-16.0834 -1.5416,-4.01739 3.0801,-5.66374 19.0535,-6.78725 11.3335,-0.79714 11.5952,-0.63627 13.454,8.26812 2.5125,12.03655 10.6104,68.2698 11.9578,83.03748 l 1.0663,11.68615 -14.7205,3.42238 c -8.0963,1.8823 -15.2897,2.85317 -15.9853,2.15751 -0.6957,-0.69566 -1.1913,-11.28911 -1.1014,-23.54094 0.1207,-16.44034 -0.7054,-22.2761 -3.1534,-22.2761 -3.2124,0 -12.1569,31.85394 -12.1569,43.29439 0,4.33539 -2.1863,5.59724 -12.0378,6.94755 -16.95465,2.3239 -18.34855,2.15426 -20.11455,-2.44795 z m 97.23965,-13.72382 c -3.2451,-2.8731 -5.7402,-10.89852 -7.7691,-24.98909 -1.6438,-11.41621 -4.0514,-26.59459 -5.3502,-33.72973 -1.2987,-7.13513 -2.4309,-19.12774 -2.516,-26.65022 -0.1829,-16.17501 1.072,-17.0352 30.9804,-21.23551 10.7027,-1.50305 23.3201,-3.45343 28.0385,-4.33414 l 8.579,-1.60131 -0.7952,13.93762 -0.7952,13.93762 -16.2162,2.17248 c -18.7317,2.50946 -18.0813,0.69607 -12.045,33.5856 l 4.1819,22.7851 18.7915,-1.70286 18.7915,-1.70283 1.7806,11.13522 c 2.0247,12.66204 -0.2372,15.3545 -12.9512,15.41729 -4.4249,0.0208 -11.4303,1.11612 -15.5676,2.43173 -15.0481,4.78511 -32.0653,5.03393 -37.1377,0.54303 z m 77.7302,-17.62457 c -5.2776,-18.43993 -13.022,-86.96364 -10.3852,-91.89049 1.7289,-3.23046 6.9395,-5.11247 17.3963,-6.28323 8.2105,-0.91929 18.3132,-2.75517 22.4505,-4.07977 10.9204,-3.49624 29.9277,-2.95062 33.85,0.97173 1.859,1.85905 5.385,17.91311 7.8356,35.67568 2.4505,17.76259 5.3213,37.95305 6.3796,44.8677 2.7166,17.75032 -1.0747,21.27544 -27.047,25.14787 -11.4162,1.70216 -26.8031,3.64715 -34.1931,4.32223 l -13.4363,1.2274 z m 43.9933,-24.40415 c 0,-1.19043 -1.0953,-7.76783 -2.4339,-14.61645 -1.3387,-6.84861 -3.1616,-17.99797 -4.0509,-24.77635 -1.31,-9.98512 -2.5871,-12.32432 -6.7286,-12.32432 -2.8114,0 -5.697,1.52544 -6.4124,3.38989 -1.4262,3.7166 3.0229,47.32231 5.1853,50.82112 1.6634,2.69148 14.4405,0.48488 14.4405,-2.49389 z m 45.7878,7.7001 c -0.9238,-8.83866 -1.6797,-33.17041 -1.6797,-54.07052 v -38.00017 l 11.7129,-3.13274 c 16.3269,-4.36675 23.7401,-3.95704 25.4719,1.40783 13.0381,40.39182 17.3017,43.83954 17.3017,13.99096 0,-11.45091 0.8757,-21.34539 1.946,-21.98771 1.0702,-0.64234 9.4037,-1.58691 18.5188,-2.09908 l 16.57289,-0.9312 4.5577,15.56757 c 8.1201,27.73512 15.093,54.14563 18.3803,69.61655 3.6541,17.19721 2.2237,19.49117 -12.6244,20.24643 -4.6378,0.23585 -9.7996,0.54567 -11.4706,0.68837 -3.2109,0.27422 -9.48499,-24.97336 -9.76819,-39.30811 -0.092,-4.63784 -1.3341,-8.43243 -2.7611,-8.43243 -1.5291,0 -2.6109,9.32378 -2.6344,22.7027 -0.021,12.48649 -0.9574,24.14769 -2.0792,25.91377 -1.1216,1.76609 -7.6883,3.51744 -14.5924,3.8919 l -12.553,0.68082 -6.6034,-22.70271 c -3.6318,-12.48648 -7.6681,-22.7027 -8.9695,-22.7027 -2.2136,0 -1.8368,6.28058 2.2181,36.97297 1.2389,9.37819 0.7904,12.37178 -1.8763,12.52284 -3.8127,0.21587 -7.8202,0.93712 -19.6655,3.53879 l -7.7229,1.69622 z M 404.00686,798.54824 c -0.6829,-2.4664 -2.0029,-11.17946 -2.9331,-19.36237 -0.9303,-8.18291 -2.4987,-15.37692 -3.4853,-15.98668 -0.9867,-0.60978 -12.1173,0.0947 -24.7347,1.5653 -21.0537,2.45399 -23.3122,2.27504 -27.4539,-2.17547 -5.4462,-5.85216 -17.2077,-73.14478 -13.4425,-76.91003 3.812,-3.81193 33.8357,-6.57904 36.494,-3.36343 1.2619,1.52645 3.1204,12.27173 4.1299,23.87839 2.2615,26.00064 3.4708,28.30828 13.1445,25.08371 6.8713,-2.29043 7.2882,-3.2428 6.5652,-14.99989 -0.4247,-6.90479 -1.84,-15.36306 -3.1453,-18.79618 -1.3052,-3.43309 -2.3732,-9.66868 -2.3732,-13.85687 0,-6.9084 0.8066,-7.61488 8.694,-7.61488 4.7816,0 12.4592,-1.31263 17.0614,-2.91695 4.7575,-1.65846 9.2977,-1.93831 10.5236,-0.64864 4.428,4.65841 19.9749,122.29131 16.5716,125.38629 -1.2408,1.12839 -9.4826,2.76047 -18.3152,3.62683 -13.8228,1.35586 -16.2321,0.95074 -17.301,-2.90913 z m 51.3493,-5.5397 c -2.3378,-5.64002 -1.3395,-109.32267 1.1421,-118.62182 1.6928,-6.34319 3.7083,-7.74469 13.4836,-9.37627 19.2816,-3.21823 45.0428,-6.98813 48.3663,-7.07788 1.7288,-0.0467 4.3969,4.87727 5.9291,10.94214 1.5322,6.06486 4.3687,15.69729 6.3034,21.4054 1.9348,5.70811 6.7123,20.88649 10.6168,33.72973 3.9045,12.84324 8.7022,28.06064 10.6614,33.81647 7.9128,23.24603 5.5636,26.33889 -21.0864,27.76135 l -12.9729,0.69245 -2.4443,-11.02703 c -2.3528,-10.61451 -2.8139,-11.02702 -12.3243,-11.02702 h -9.8801 v 12.79812 c 0,14.27141 -0.2294,14.4508 -23.1138,18.06832 -10.7064,1.69245 -13.2662,1.32908 -14.6809,-2.08396 z m 46.9979,-69.64735 c -2.835,-15.73808 -7.2653,-29.18919 -9.6139,-29.18919 -1.2011,0 -2.1839,8.75676 -2.1839,19.45946 0,19.24818 0.073,19.45946 6.7753,19.45946 6.411,0 6.681,-0.52304 5.0225,-9.72973 z m 64.8158,39.35567 c -0.9975,-9.3146 -2.8071,-20.39979 -4.0214,-24.63381 -3.2254,-11.24619 -11.0647,-82.95204 -9.2655,-84.75121 3.4365,-3.43651 33.6211,-5.93246 35.4747,-2.9334 1.0154,1.64308 2.6515,11.58051 3.6357,22.08319 1.5146,16.16259 2.5226,19.09578 6.5625,19.09578 4.1371,0 5.0108,-3.03962 6.5578,-22.81518 l 1.7848,-22.81518 16.7457,-3.17661 c 9.2101,-1.74715 17.9877,-2.40906 19.5057,-1.47093 3.1686,1.95838 1.1171,30.97617 -3.4204,48.37868 -2.7505,10.54903 -2.3485,11.98091 10.2338,36.45551 7.2032,14.01135 13.8225,28.77958 14.7095,32.81827 l 1.61275,7.34307 -18.95915,2.34855 c -10.4276,1.29172 -19.6827,2.01896 -20.5669,1.61609 -0.8841,-0.40286 -5.4057,-11.26575 -10.0479,-24.13979 -11.9676,-33.18959 -17.8119,-31.35028 -13.4822,4.24309 1.7846,14.67101 1.6552,21.16484 -0.4637,23.27115 -1.6165,1.60686 -10.1038,3.61835 -18.8606,4.46995 l -15.9215,1.54837 z m 115.80705,-3.20368 c -6.523,-5.09127 -6.05,-2.87294 -15.78815,-74.05188 -6.679,-48.81846 -6.8743,-48.3531 21.85395,-52.08573 5.7081,-0.74167 20.4663,-2.71839 32.796,-4.39275 12.3296,-1.67435 24.3147,-2.31628 26.6335,-1.42646 7.5887,2.91204 8.9589,9.24996 19.905,92.07015 4.1722,31.56794 4.1394,31.60177 -35.9564,37.07211 -16.7228,2.28153 -33.324,4.91341 -36.8916,5.8486 -4.3858,1.14969 -8.4509,0.1671 -12.5523,-3.03404 z m 40.6819,-33.30896 c 6.7462,-1.80618 6.7326,0.57551 0.2465,-43.05924 -3.0654,-20.62223 -3.8967,-22.70271 -9.0712,-22.70271 -9.669,0 -12.4429,5.99118 -9.2845,20.05305 1.5293,6.80866 3.5489,19.38479 4.4879,27.94695 2.3005,20.976 2.184,20.82417 13.6214,17.76195 z m 61.9572,19.12076 c -2.7823,-7.25046 -5.2657,-123.00065 -2.6733,-124.60278 5.5549,-3.43317 37.9767,-7.17076 40.4809,-4.66664 1.3996,1.39963 5.8116,12.0776 9.8045,23.72881 3.9928,11.65124 7.8037,21.72812 8.4687,22.39312 1.3368,1.33678 3.2409,-10.16674 5.7652,-34.83124 1.8481,-18.05641 0.3409,-16.91902 27.8246,-20.99852 8.2503,-1.22462 15.499,-1.42013 16.1082,-0.43449 0.6092,0.98566 2.2281,6.36062 3.5976,11.94437 1.3695,5.58372 5.6217,21.82791 9.4494,36.09818 13.3505,49.77319 17.6058,71.60048 14.5537,74.65258 -1.5667,1.56669 -9.8149,3.35245 -18.3293,3.96833 -17.7008,1.28035 -15.7078,4.33951 -20.7454,-31.84317 -4.4163,-31.72038 -7.9592,-30.39379 -7.9592,2.98025 0,19.84029 -1.0044,29.56831 -3.2432,31.4106 -1.7838,1.46784 -9.3628,3.43955 -16.8422,4.38152 -15.7218,1.98007 -14.0637,4.13028 -25.4541,-33.00957 -6.965,-22.71007 -12.2187,-30.14857 -10.079,-14.27027 7.4977,55.63742 7.8318,53.69217 -9.2463,53.83353 -4.9946,0.0412 -11.5471,0.73707 -14.5611,1.54606 -3.4609,0.92895 -6.0105,0.0887 -6.9197,-2.28067 z M 502.14706,633.78455 c -0.8546,-3.40501 -1.1851,-11.35135 -0.7345,-17.6585 l 0.8194,-11.46756 10.9412,-0.79363 c 9.6786,-0.70205 11.1205,-0.0791 12.495,5.3973 0.8546,3.40501 1.1851,11.35135 0.7345,17.6585 l -0.8194,11.46756 -10.9412,0.79363 c -9.6785,0.70205 -11.1205,0.0791 -12.495,-5.3973 z m 14.3552,-10.9639 c 0,-4.99459 -1.1676,-9.08108 -2.5946,-9.08108 -2.8771,0 -3.5981,13.6992 -0.8649,16.43243 2.9862,2.98624 3.4595,1.98066 3.4595,-7.35135 z m 17.7506,13.0058 c -0.9398,-0.94641 -0.648,-5.41972 0.6486,-9.94072 1.2967,-4.52101 2.3575,-12.02232 2.3575,-16.66957 0,-4.92709 1.3521,-8.52994 3.2433,-8.64237 1.7837,-0.10611 6.0781,-0.71424 9.5431,-1.35152 7.7438,-1.42433 10.4736,2.50897 10.5252,15.16595 0.021,5.35135 1.2073,9.72973 2.6344,9.72973 1.427,0 2.5946,2.33514 2.5946,5.18919 0,3.6432 -1.7393,5.1977 -5.8379,5.21776 -3.2108,0.0156 -9.9243,0.70212 -14.9189,1.52541 -4.9946,0.82326 -9.85,0.72252 -10.7899,-0.22391 z m 16.626,-18.13305 c -1.702,-8.90322 -3.2415,-8.24376 -3.2415,1.38849 0,4.36531 1.011,7.31209 2.2466,6.5484 1.2357,-0.76367 1.6834,-4.33528 0.9949,-7.93689 z m 19.1191,12.1097 c -1.7057,-2.7598 -2.8366,-31.26323 -1.3013,-32.79846 0.6542,-0.6543 5.9397,-1.94918 11.7455,-2.87758 9.5642,-1.52936 10.7096,-1.11397 12.1915,4.42173 0.8995,3.36034 1.6515,11.5097 1.671,18.1097 0.034,11.37463 -0.3872,12.08451 -8.0727,13.62162 -10.7919,2.15839 -14.6758,2.04426 -16.234,-0.47701 z m 13.9637,-16.06353 c 0,-5.70811 -1.1675,-10.37838 -2.5946,-10.37838 -2.8705,0 -3.6106,16.28129 -0.8648,19.02702 3.0299,3.02997 3.4594,1.95622 3.4594,-8.64864 z m 17.2329,3.24325 c -3.2656,-19.75714 -2.375,-23.20943 6.4428,-24.97298 13.3618,-2.67235 17.8372,-2.04446 16.1815,2.27027 -0.8214,2.14054 -3.6347,3.89189 -6.2519,3.89189 -2.6172,0 -5.4801,1.16757 -6.362,2.5946 -0.9305,1.50559 1.6065,2.59459 6.0446,2.59459 6.7448,0 7.8577,1.11726 9.4228,9.46 2.0916,11.149 -0.6724,13.7932 -14.4793,13.85163 -8.845,0.0374 -9.4836,-0.52527 -10.9985,-9.69 z m 31.0197,-10.05645 c -0.9687,-9.45535 -1.4219,-17.52163 -1.007,-17.92504 0.4149,-0.40341 6.0085,-1.13207 12.4301,-1.61923 l 11.6757,-0.88577 V 598.172 c 0,7.43785 -1.1772,11.7934 -3.2433,12 -1.7838,0.17825 -4.4108,0.47027 -5.8378,0.64865 -1.427,0.17825 -2.5946,3.24325 -2.5946,6.81081 0,4.59641 -1.4077,6.48649 -4.8309,6.48649 -4.0482,0 -5.1163,-2.7854 -6.5922,-17.19158 z m 13.978,-9.40301 c -0.031,-4.55795 -0.5624,-5.01172 -2.4234,-2.06984 -1.3111,2.0724 -1.8081,4.69943 -1.1045,5.83784 2.2505,3.64133 3.5687,2.23337 3.5279,-3.768 z m 19.9475,19.45946 c -0.6353,-1.07027 -1.9865,-9.24325 -3.0025,-18.16217 l -1.8472,-16.21621 h 11.93035 c 12.1486,0 16.4548,4.49186 6.7412,7.032 -2.854,0.74636 -5.1892,2.25221 -5.1892,3.34638 0,1.09416 2.3352,2.60001 5.1892,3.34637 6.8437,1.78968 6.6825,7.032 -0.2161,7.032 -7.0779,0 -5.0661,6.2221 2.3654,7.31559 3.099,0.456 5.6346,1.7793 5.6346,2.94064 0,4.11259 -19.3709,7.12989 -21.60565,3.3654 z m 28.41075,-2.72768 c -0.6296,-1.01882 -1.9019,-6.51375 -2.8271,-12.21101 -0.9253,-5.69724 -2.2211,-12.98564 -2.8796,-16.19645 -0.9897,-4.82592 -0.064,-5.83784 5.3387,-5.83784 5.2419,0 6.5359,1.28422 6.5359,6.48649 0,3.56757 1.1675,6.48649 2.5946,6.48649 1.427,0 2.5946,-2.85001 2.5946,-6.33336 0,-3.48334 1.3447,-7.16443 2.9882,-8.18018 5.1669,-3.19333 9.9847,7.1789 9.9847,21.49593 0,12.04462 -0.6516,13.77436 -5.1892,13.77436 -3.8054,0 -5.1891,-1.72974 -5.1891,-6.48648 0,-3.56757 -1.1676,-6.48649 -2.5946,-6.48649 -1.4271,0 -2.5946,2.79401 -2.5946,6.20889 0,5.9157 -6.3467,11.18841 -8.7625,7.27965 z m 31.1784,-5.13789 c -0.6274,-1.02531 -1.9645,-8.48871 -2.9714,-16.5854 l -1.8309,-14.72124 10.004,-2.7778 c 17.3571,-4.81953 16.8444,-5.31995 20.2246,19.73934 0.9221,6.83575 0.3681,11.54914 -1.4924,12.69904 -4.2187,2.60728 -22.5734,3.86963 -23.9339,1.64606 z m 13.9084,-17.43173 c 0,-6.61105 -1.1341,-9.08108 -4.1695,-9.08108 -2.736,0 -3.628,1.41094 -2.5946,4.1041 0.8662,2.25725 1.5749,6.34373 1.5749,9.08108 0,2.73733 1.1676,4.97698 2.5946,4.97698 1.427,0 2.5946,-4.08649 2.5946,-9.08108 z M 456.82656,546.98595 c 0,-2.80881 22.065,-33.33429 25.7347,-35.60233 1.4741,-0.91104 6.866,-7.96268 11.9821,-15.67034 5.2451,-7.90207 10.7131,-13.47238 12.5377,-12.77223 5.258,2.01769 17.4263,29.41409 19.0123,42.80536 l 1.4671,12.38725 -10.0697,1.61184 c -5.5383,0.88652 -14.7399,2.66537 -20.448,3.95299 -16.9247,3.81787 -40.2162,5.72181 -40.2162,3.28746 z m -240.3521,-12.14828 c 8.378,-4.65037 17.217,-5.43612 17.217,-1.53053 0,1.42703 -1.6054,2.5946 -3.5676,2.5946 -1.9622,0 -7.5081,0.68873 -12.3243,1.53052 l -8.7568,1.5305 z m 36.6764,-4.36198 -10.3784,-5.0412 9.0464,1.39966 c 4.9755,0.76979 10.7716,3.12493 12.8803,5.2336 5.1036,5.10362 1.0999,4.55168 -11.5483,-1.59206 z m 304.8649,-25.48463 c 0,-4.51351 18.7291,-20.98122 23.8625,-20.98122 5.0465,0 1.3561,10.0654 -6.4725,17.65318 -9.6733,9.37575 -17.39,10.85254 -17.39,3.32804 z m -216.7727,588.94924 c 0.8136,-1.3166 -8.7499,-11.1343 -21.2523,-21.8172 -33.2134,-28.3796 -68.9612,-66.8579 -83.7047,-90.09845 -2.1406,-3.37419 -6.9605,-9.33924 -10.7111,-13.2557 -3.7505,-3.91647 -6.2443,-7.69562 -5.5418,-8.39811 0.7024,-0.70249 -1.3292,-5.49455 -4.5149,-10.64905 -4.4543,-7.20718 -5.428,-11.64845 -4.2159,-19.22864 1.4982,-9.36911 1.1642,-9.975 -6.7484,-12.24431 -7.3084,-2.09601 -9.3621,-4.90256 -16.8234,-22.99034 -4.6743,-11.33158 -9.7537,-24.72518 -11.2876,-29.7636 -1.5338,-5.03839 -3.8029,-11.49587 -5.0423,-14.34993 -5.6225,-12.94687 -15.7644,-62.29891 -18.1285,-88.21621 -4.6259,-50.7127 -1.8149,-115.87623 6.2678,-145.2973 1.9602,-7.13513 4.3265,-17.38202 5.2584,-22.77083 2.0209,-11.68676 13.0735,-46.55528 18.4017,-58.05372 5.0609,-10.92135 4.7738,-15.60991 -1.0489,-17.13257 -3.6609,-0.95736 -5.9104,1.16645 -9.2479,8.73101 -7.6374,17.31057 -19.5397,52.67827 -19.5931,58.22071 -0.028,2.9254 -1.1791,6.44687 -2.5577,7.82548 -1.3786,1.37861 -4.9772,20.00131 -7.9969,41.38378 -8.8771,62.85943 -4.984,136.17763 10.3305,194.5529 5.471,20.85421 13.9266,47.41686 18.1705,57.08108 16.1107,36.68764 23.4234,51.48223 31.1712,63.06349 5.0653,7.57139 11.4193,17.49571 14.1201,22.05405 6.891,11.6303 17.8243,28.13196 21.7647,32.84926 33.9612,40.6574 59.7115,66.2278 87.487,86.8755 5.9076,4.3917 13.2569,5.1667 15.4435,1.6287 z M 198.31216,502.47858 c 9.5626,-20.71329 44.1209,-74.15237 60.005,-92.78848 24.1643,-28.35101 44.0714,-48.15537 65.5364,-65.19811 20.9484,-16.63257 25.1404,-22.6712 17.7163,-25.52012 -5.7155,-2.19324 -13.7957,3.22233 -39.81,26.68183 -30.8865,27.85314 -30.2136,27.16056 -53.0911,54.6476 -20.6845,24.85216 -31.3291,40.23819 -48.0398,69.43827 -22.6915,39.65081 -25.1575,48 -14.1773,48 3.346,0 6.9646,-4.65605 11.8605,-15.26099 z M 1074.34,482.86568 c 0,-0.62929 -1.1676,-1.86577 -2.5946,-2.74773 -1.4271,-0.88195 -2.5946,-0.36708 -2.5946,1.14417 0,1.51124 1.1675,2.74772 2.5946,2.74772 1.427,0 2.5946,-0.51487 2.5946,-1.14416 z M 508.55766,391.63885 c 5.1806,-4.35912 9.6113,-6.1392 12.5113,-5.02638 2.4695,0.94765 15.8793,0.91556 29.7995,-0.0713 20.9246,-1.48348 25.2945,-2.52308 25.2231,-6.00065 -0.1782,-8.67902 -8.977,-15.27899 -22.1557,-16.61868 -7.0317,-0.71482 -17.4674,-2.75938 -23.1904,-4.54345 -9.5918,-2.99019 -11.6204,-2.67638 -25.9459,4.01389 -24.7331,11.5508 -29.3374,15.51183 -27.7805,23.89896 0.7357,3.96283 2.6231,8.06294 4.1942,9.11136 6.2443,4.16687 19.4691,1.86298 27.3444,-4.7637 z m -49.1365,-18.84667 c 0,-4.08863 2.3351,-10.40253 5.1892,-14.03086 2.854,-3.62833 5.2216,-7.5804 5.2612,-8.78234 0.04,-1.20195 3.6323,-5.68065 7.9836,-9.9527 7.1878,-7.05678 7.7555,-8.80743 6.2066,-19.13659 l -1.7049,-11.3692 12.1486,1.82179 c 10.5364,1.58003 12.6496,1.10675 15.9226,-3.56611 4.6901,-6.69608 14.2297,-6.95543 20.0314,-0.54461 4.1979,4.63865 3.9408,4.91406 -6.0843,6.51716 -6.788,1.08542 -10.4675,3.03111 -10.4675,5.53505 0,2.12367 1.5956,3.86122 3.5459,3.86122 3.5291,0 16.5067,4.81697 48.0179,17.82313 12.8767,5.31486 17.4335,8.69183 20.5887,15.25794 3.7286,7.75984 13.4691,12.05467 13.4691,5.93893 0,-1.37146 2.1852,-4.58227 4.8559,-7.13514 9.9661,-9.5263 18.4954,-29.9426 18.4954,-44.27187 0,-7.54907 1.7514,-17.91718 3.8919,-23.04021 5.1019,-12.21057 4.9574,-32.77568 -0.3035,-43.18811 -5.7573,-11.39505 -14.0093,-19.97926 -19.2061,-19.97926 -2.3841,0 -6.448,-2.33514 -9.0309,-5.18919 -6.0026,-6.63274 -11.784,-6.63274 -13.5185,0 -1.0197,3.89931 -3.5391,5.18919 -10.1355,5.18919 -10.372,0 -12.2126,6.60654 -2.834,10.1723 3.2695,1.24305 7.4261,4.0453 9.2369,6.22722 2.9045,3.4997 0.5992,4.06654 -19.5661,4.81083 -24.5477,0.90605 -22.5024,1.68508 -42.0421,-16.01332 -4.8429,-4.38653 -10.0803,-7.5505 -11.6387,-7.03104 -1.5584,0.51946 -3.6496,5.72569 -4.6472,11.56939 -0.9976,5.84371 -3.5412,13.96528 -5.6524,18.04794 -2.1112,4.08266 -4.6549,11.77395 -5.6525,17.09175 -2.3887,12.73279 -5.8961,14.46834 -9.3303,4.61685 -1.5297,-4.38813 -4.1265,-8.10765 -5.7707,-8.26561 -9.2777,-0.89131 -16.7354,1.46583 -22.813,7.21046 -3.7677,3.56137 -7.5276,5.37961 -8.3552,4.04054 -2.43,-3.93188 0.4695,-14.24797 6.1728,-21.96213 4.8842,-6.6062 4.9369,-7.15711 0.6782,-7.07751 -2.54,0.0475 -7.4243,2.42288 -10.854,5.27868 -6.1778,5.14413 -6.2204,5.51079 -4.5772,39.48124 0.9123,18.85889 3.4413,40.71051 5.6202,48.55916 2.1788,7.84864 4.6924,18.35675 5.5858,23.35134 2.7869,15.58034 11.2827,21.70496 11.2827,8.13369 z m -225.0317,763.25752 c 2.5244,-0.6579 6.0271,-0.6146 7.7838,0.096 1.7566,0.7108 -0.3089,1.249 -4.59,1.1961 -4.281,-0.053 -5.7183,-0.6344 -3.1938,-1.2922 z m -66.0494,-36.2987 c 1.873,-0.7495 4.1108,-0.6574 4.973,0.2047 0.8621,0.8621 -0.6703,1.4754 -3.4054,1.3627 -3.0226,-0.1245 -3.6374,-0.7393 -1.5676,-1.5675 z M 1001.0748,404.03676 c -6.43779,-6.8825 -16.04759,-18.55818 -21.35519,-25.94595 -5.3076,-7.38777 -10.7258,-13.43232 -12.0404,-13.43232 -1.3147,0 -7.7962,-5.25405 -14.4035,-11.67567 -8.5129,-8.27376 -10.69,-11.67567 -7.4721,-11.67567 3.7329,0 4.3648,-1.84657 3.5512,-10.37838 -1.0983,-11.51623 2.2122,-14.5703 3.5156,-3.24324 0.6474,5.62708 2.0404,7.00707 6.5904,6.5292 3.5353,-0.37129 6.8359,1.38694 8.5237,4.54054 1.5149,2.83057 4.7675,5.14648 7.2281,5.14648 2.4606,0 5.9321,2.33512 7.7145,5.18918 1.7823,2.85405 4.6902,5.19126 6.4619,5.19383 1.7717,0.003 4.9726,2.81083 7.1132,6.24065 2.1405,3.42979 10.02159,13.41265 17.51339,22.18409 7.4919,8.77147 13.6217,18.15643 13.6217,20.85548 0,4.34919 -8.7758,12.98541 -13.1953,12.98541 -0.9142,0 -6.9295,-5.63113 -13.3672,-12.51363 z"
     id="path20"
     inkscape:connector-curvature="0" />
</svg>
